<mxfile host="app.diagrams.net" modified="2022-03-10T16:52:56.359Z" agent="5.0 (Windows NT 10.0; Win64; x64) AppleWebKit/537.36 (KHTML, like Gecko) Chrome/99.0.4844.51 Safari/537.36" etag="lcb7vvuoxR31gUz4-hp7" version="17.0.0" type="github">
  <diagram id="C5RBs43oDa-KdzZeNtuy" name="Page-1">
    <mxGraphModel dx="2500" dy="896" grid="1" gridSize="10" guides="1" tooltips="1" connect="1" arrows="1" fold="1" page="1" pageScale="1" pageWidth="827" pageHeight="1169" math="0" shadow="0">
      <root>
        <mxCell id="WIyWlLk6GJQsqaUBKTNV-0" />
        <mxCell id="WIyWlLk6GJQsqaUBKTNV-1" parent="WIyWlLk6GJQsqaUBKTNV-0" />
        <mxCell id="WIyWlLk6GJQsqaUBKTNV-2" value="" style="rounded=0;html=1;jettySize=auto;orthogonalLoop=1;fontSize=11;endArrow=block;endFill=0;endSize=8;strokeWidth=1;shadow=0;labelBackgroundColor=none;edgeStyle=orthogonalEdgeStyle;" parent="WIyWlLk6GJQsqaUBKTNV-1" source="WIyWlLk6GJQsqaUBKTNV-3" target="WIyWlLk6GJQsqaUBKTNV-6" edge="1">
          <mxGeometry relative="1" as="geometry" />
        </mxCell>
        <mxCell id="WIyWlLk6GJQsqaUBKTNV-3" value="vendingMachine" style="rounded=1;whiteSpace=wrap;html=1;fontSize=12;glass=0;strokeWidth=1;shadow=0;" parent="WIyWlLk6GJQsqaUBKTNV-1" vertex="1">
          <mxGeometry x="320" y="20" width="120" height="40" as="geometry" />
        </mxCell>
        <mxCell id="y_qptO-ub4ya4E3uh66B-37" value="cash" style="edgeStyle=orthogonalEdgeStyle;rounded=0;orthogonalLoop=1;jettySize=auto;html=1;entryX=1;entryY=0.5;entryDx=0;entryDy=0;" parent="WIyWlLk6GJQsqaUBKTNV-1" source="WIyWlLk6GJQsqaUBKTNV-6" target="y_qptO-ub4ya4E3uh66B-1" edge="1">
          <mxGeometry relative="1" as="geometry" />
        </mxCell>
        <mxCell id="y_qptO-ub4ya4E3uh66B-38" value="card" style="edgeStyle=orthogonalEdgeStyle;rounded=0;orthogonalLoop=1;jettySize=auto;html=1;entryX=0;entryY=0.5;entryDx=0;entryDy=0;" parent="WIyWlLk6GJQsqaUBKTNV-1" source="WIyWlLk6GJQsqaUBKTNV-6" target="y_qptO-ub4ya4E3uh66B-36" edge="1">
          <mxGeometry relative="1" as="geometry" />
        </mxCell>
        <mxCell id="WIyWlLk6GJQsqaUBKTNV-6" value="cash ? card" style="rhombus;whiteSpace=wrap;html=1;shadow=0;fontFamily=Helvetica;fontSize=12;align=center;strokeWidth=1;spacing=6;spacingTop=-4;" parent="WIyWlLk6GJQsqaUBKTNV-1" vertex="1">
          <mxGeometry x="330" y="110" width="100" height="80" as="geometry" />
        </mxCell>
        <mxCell id="y_qptO-ub4ya4E3uh66B-3" value="Yes" style="edgeStyle=orthogonalEdgeStyle;rounded=0;orthogonalLoop=1;jettySize=auto;html=1;" parent="WIyWlLk6GJQsqaUBKTNV-1" source="y_qptO-ub4ya4E3uh66B-1" target="y_qptO-ub4ya4E3uh66B-2" edge="1">
          <mxGeometry y="20" relative="1" as="geometry">
            <mxPoint as="offset" />
          </mxGeometry>
        </mxCell>
        <mxCell id="y_qptO-ub4ya4E3uh66B-7" value="No" style="edgeStyle=orthogonalEdgeStyle;rounded=0;orthogonalLoop=1;jettySize=auto;html=1;" parent="WIyWlLk6GJQsqaUBKTNV-1" source="y_qptO-ub4ya4E3uh66B-1" target="y_qptO-ub4ya4E3uh66B-6" edge="1">
          <mxGeometry x="-0.8462" y="10" relative="1" as="geometry">
            <mxPoint as="offset" />
          </mxGeometry>
        </mxCell>
        <mxCell id="y_qptO-ub4ya4E3uh66B-1" value="amount &amp;gt; 0" style="rhombus;whiteSpace=wrap;html=1;" parent="WIyWlLk6GJQsqaUBKTNV-1" vertex="1">
          <mxGeometry x="140" y="110" width="100" height="80" as="geometry" />
        </mxCell>
        <mxCell id="y_qptO-ub4ya4E3uh66B-5" value="Yes" style="edgeStyle=orthogonalEdgeStyle;rounded=0;orthogonalLoop=1;jettySize=auto;html=1;" parent="WIyWlLk6GJQsqaUBKTNV-1" source="y_qptO-ub4ya4E3uh66B-2" target="y_qptO-ub4ya4E3uh66B-4" edge="1">
          <mxGeometry y="20" relative="1" as="geometry">
            <mxPoint as="offset" />
          </mxGeometry>
        </mxCell>
        <mxCell id="y_qptO-ub4ya4E3uh66B-8" value="No" style="edgeStyle=orthogonalEdgeStyle;rounded=0;orthogonalLoop=1;jettySize=auto;html=1;exitX=0;exitY=0.5;exitDx=0;exitDy=0;" parent="WIyWlLk6GJQsqaUBKTNV-1" source="y_qptO-ub4ya4E3uh66B-2" target="y_qptO-ub4ya4E3uh66B-6" edge="1">
          <mxGeometry x="-0.7778" y="10" relative="1" as="geometry">
            <mxPoint as="offset" />
          </mxGeometry>
        </mxCell>
        <mxCell id="y_qptO-ub4ya4E3uh66B-2" value="cash &amp;gt; price" style="rhombus;whiteSpace=wrap;html=1;" parent="WIyWlLk6GJQsqaUBKTNV-1" vertex="1">
          <mxGeometry x="140" y="270" width="100" height="80" as="geometry" />
        </mxCell>
        <mxCell id="y_qptO-ub4ya4E3uh66B-9" value="No" style="edgeStyle=orthogonalEdgeStyle;rounded=0;orthogonalLoop=1;jettySize=auto;html=1;exitX=0;exitY=0.5;exitDx=0;exitDy=0;" parent="WIyWlLk6GJQsqaUBKTNV-1" source="y_qptO-ub4ya4E3uh66B-4" target="y_qptO-ub4ya4E3uh66B-6" edge="1">
          <mxGeometry x="-0.6744" y="20" relative="1" as="geometry">
            <mxPoint as="offset" />
          </mxGeometry>
        </mxCell>
        <mxCell id="2oKnmPSqaUGV2AU_C0cW-1" value="Yes" style="edgeStyle=orthogonalEdgeStyle;rounded=0;orthogonalLoop=1;jettySize=auto;html=1;" edge="1" parent="WIyWlLk6GJQsqaUBKTNV-1" source="y_qptO-ub4ya4E3uh66B-4" target="2oKnmPSqaUGV2AU_C0cW-0">
          <mxGeometry y="20" relative="1" as="geometry">
            <mxPoint as="offset" />
          </mxGeometry>
        </mxCell>
        <mxCell id="y_qptO-ub4ya4E3uh66B-4" value="&lt;span&gt;(cash - price)&lt;/span&gt;&lt;br&gt;&lt;span&gt;&amp;gt; coin&lt;/span&gt;" style="rhombus;whiteSpace=wrap;html=1;" parent="WIyWlLk6GJQsqaUBKTNV-1" vertex="1">
          <mxGeometry x="140" y="430" width="100" height="80" as="geometry" />
        </mxCell>
        <mxCell id="y_qptO-ub4ya4E3uh66B-21" style="edgeStyle=orthogonalEdgeStyle;rounded=0;orthogonalLoop=1;jettySize=auto;html=1;exitX=0.5;exitY=1;exitDx=0;exitDy=0;entryX=0;entryY=0.5;entryDx=0;entryDy=0;" parent="WIyWlLk6GJQsqaUBKTNV-1" source="y_qptO-ub4ya4E3uh66B-6" target="y_qptO-ub4ya4E3uh66B-19" edge="1">
          <mxGeometry relative="1" as="geometry" />
        </mxCell>
        <mxCell id="y_qptO-ub4ya4E3uh66B-6" value="&lt;div style=&quot;line-height: 19px&quot;&gt;&lt;font face=&quot;helvetica&quot;&gt;availability : false&lt;/font&gt;&lt;/div&gt;" style="whiteSpace=wrap;html=1;" parent="WIyWlLk6GJQsqaUBKTNV-1" vertex="1">
          <mxGeometry x="-60" y="760" width="120" height="60" as="geometry" />
        </mxCell>
        <mxCell id="y_qptO-ub4ya4E3uh66B-20" value="" style="edgeStyle=orthogonalEdgeStyle;rounded=0;orthogonalLoop=1;jettySize=auto;html=1;" parent="WIyWlLk6GJQsqaUBKTNV-1" source="y_qptO-ub4ya4E3uh66B-10" target="y_qptO-ub4ya4E3uh66B-19" edge="1">
          <mxGeometry relative="1" as="geometry" />
        </mxCell>
        <mxCell id="y_qptO-ub4ya4E3uh66B-10" value="availability : true" style="whiteSpace=wrap;html=1;" parent="WIyWlLk6GJQsqaUBKTNV-1" vertex="1">
          <mxGeometry x="130" y="760" width="120" height="60" as="geometry" />
        </mxCell>
        <mxCell id="y_qptO-ub4ya4E3uh66B-23" value="" style="edgeStyle=orthogonalEdgeStyle;rounded=0;orthogonalLoop=1;jettySize=auto;html=1;entryX=0.5;entryY=0;entryDx=0;entryDy=0;" parent="WIyWlLk6GJQsqaUBKTNV-1" source="y_qptO-ub4ya4E3uh66B-19" target="y_qptO-ub4ya4E3uh66B-24" edge="1">
          <mxGeometry relative="1" as="geometry">
            <mxPoint x="190" y="1030" as="targetPoint" />
          </mxGeometry>
        </mxCell>
        <mxCell id="y_qptO-ub4ya4E3uh66B-19" value="choice drink Num" style="whiteSpace=wrap;html=1;" parent="WIyWlLk6GJQsqaUBKTNV-1" vertex="1">
          <mxGeometry x="130" y="900" width="120" height="60" as="geometry" />
        </mxCell>
        <mxCell id="y_qptO-ub4ya4E3uh66B-28" value="True" style="edgeStyle=orthogonalEdgeStyle;rounded=0;orthogonalLoop=1;jettySize=auto;html=1;" parent="WIyWlLk6GJQsqaUBKTNV-1" source="y_qptO-ub4ya4E3uh66B-24" target="y_qptO-ub4ya4E3uh66B-27" edge="1">
          <mxGeometry x="-0.1111" y="20" relative="1" as="geometry">
            <mxPoint as="offset" />
          </mxGeometry>
        </mxCell>
        <mxCell id="y_qptO-ub4ya4E3uh66B-35" value="False" style="edgeStyle=orthogonalEdgeStyle;rounded=0;orthogonalLoop=1;jettySize=auto;html=1;exitX=1;exitY=0.5;exitDx=0;exitDy=0;entryX=1;entryY=0.5;entryDx=0;entryDy=0;" parent="WIyWlLk6GJQsqaUBKTNV-1" source="y_qptO-ub4ya4E3uh66B-24" target="y_qptO-ub4ya4E3uh66B-19" edge="1">
          <mxGeometry x="0.0476" y="-20" relative="1" as="geometry">
            <Array as="points">
              <mxPoint x="280" y="1070" />
              <mxPoint x="280" y="930" />
            </Array>
            <mxPoint as="offset" />
          </mxGeometry>
        </mxCell>
        <mxCell id="y_qptO-ub4ya4E3uh66B-24" value="availability" style="rhombus;whiteSpace=wrap;html=1;" parent="WIyWlLk6GJQsqaUBKTNV-1" vertex="1">
          <mxGeometry x="140" y="1030" width="100" height="80" as="geometry" />
        </mxCell>
        <mxCell id="y_qptO-ub4ya4E3uh66B-30" value="" style="edgeStyle=orthogonalEdgeStyle;rounded=0;orthogonalLoop=1;jettySize=auto;html=1;" parent="WIyWlLk6GJQsqaUBKTNV-1" source="y_qptO-ub4ya4E3uh66B-27" target="y_qptO-ub4ya4E3uh66B-29" edge="1">
          <mxGeometry relative="1" as="geometry" />
        </mxCell>
        <mxCell id="y_qptO-ub4ya4E3uh66B-27" value="drink amount - 1" style="whiteSpace=wrap;html=1;" parent="WIyWlLk6GJQsqaUBKTNV-1" vertex="1">
          <mxGeometry x="130" y="1200" width="120" height="60" as="geometry" />
        </mxCell>
        <mxCell id="y_qptO-ub4ya4E3uh66B-32" value="" style="edgeStyle=orthogonalEdgeStyle;rounded=0;orthogonalLoop=1;jettySize=auto;html=1;" parent="WIyWlLk6GJQsqaUBKTNV-1" source="y_qptO-ub4ya4E3uh66B-29" target="y_qptO-ub4ya4E3uh66B-31" edge="1">
          <mxGeometry relative="1" as="geometry" />
        </mxCell>
        <mxCell id="y_qptO-ub4ya4E3uh66B-29" value="Drink Drop!" style="whiteSpace=wrap;html=1;" parent="WIyWlLk6GJQsqaUBKTNV-1" vertex="1">
          <mxGeometry x="130" y="1340" width="120" height="60" as="geometry" />
        </mxCell>
        <mxCell id="y_qptO-ub4ya4E3uh66B-34" value="" style="edgeStyle=orthogonalEdgeStyle;rounded=0;orthogonalLoop=1;jettySize=auto;html=1;" parent="WIyWlLk6GJQsqaUBKTNV-1" source="y_qptO-ub4ya4E3uh66B-31" target="y_qptO-ub4ya4E3uh66B-33" edge="1">
          <mxGeometry relative="1" as="geometry">
            <Array as="points">
              <mxPoint x="190" y="1600" />
            </Array>
          </mxGeometry>
        </mxCell>
        <mxCell id="y_qptO-ub4ya4E3uh66B-31" value="Change Money Back!" style="whiteSpace=wrap;html=1;" parent="WIyWlLk6GJQsqaUBKTNV-1" vertex="1">
          <mxGeometry x="130" y="1480" width="120" height="60" as="geometry" />
        </mxCell>
        <mxCell id="y_qptO-ub4ya4E3uh66B-33" value="end" style="rounded=1;whiteSpace=wrap;html=1;" parent="WIyWlLk6GJQsqaUBKTNV-1" vertex="1">
          <mxGeometry x="510" y="1570" width="120" height="60" as="geometry" />
        </mxCell>
        <mxCell id="y_qptO-ub4ya4E3uh66B-40" value="credit" style="edgeStyle=orthogonalEdgeStyle;rounded=0;orthogonalLoop=1;jettySize=auto;html=1;" parent="WIyWlLk6GJQsqaUBKTNV-1" source="y_qptO-ub4ya4E3uh66B-36" target="y_qptO-ub4ya4E3uh66B-39" edge="1">
          <mxGeometry relative="1" as="geometry" />
        </mxCell>
        <mxCell id="y_qptO-ub4ya4E3uh66B-42" value="check" style="edgeStyle=orthogonalEdgeStyle;rounded=0;orthogonalLoop=1;jettySize=auto;html=1;entryX=0.5;entryY=0;entryDx=0;entryDy=0;" parent="WIyWlLk6GJQsqaUBKTNV-1" source="y_qptO-ub4ya4E3uh66B-36" target="pP0EyL-9nEWQgfvj5Cs3-31" edge="1">
          <mxGeometry x="0.75" relative="1" as="geometry">
            <mxPoint x="829.9999999999995" y="280.00000000000045" as="targetPoint" />
            <mxPoint as="offset" />
          </mxGeometry>
        </mxCell>
        <mxCell id="y_qptO-ub4ya4E3uh66B-36" value="check ? credit" style="rhombus;whiteSpace=wrap;html=1;" parent="WIyWlLk6GJQsqaUBKTNV-1" vertex="1">
          <mxGeometry x="520" y="110" width="100" height="80" as="geometry" />
        </mxCell>
        <mxCell id="pP0EyL-9nEWQgfvj5Cs3-4" value="Yes" style="edgeStyle=orthogonalEdgeStyle;rounded=0;orthogonalLoop=1;jettySize=auto;html=1;" parent="WIyWlLk6GJQsqaUBKTNV-1" source="y_qptO-ub4ya4E3uh66B-39" target="pP0EyL-9nEWQgfvj5Cs3-3" edge="1">
          <mxGeometry relative="1" as="geometry" />
        </mxCell>
        <mxCell id="pP0EyL-9nEWQgfvj5Cs3-6" value="No" style="edgeStyle=orthogonalEdgeStyle;rounded=0;orthogonalLoop=1;jettySize=auto;html=1;" parent="WIyWlLk6GJQsqaUBKTNV-1" source="y_qptO-ub4ya4E3uh66B-39" target="pP0EyL-9nEWQgfvj5Cs3-5" edge="1">
          <mxGeometry x="-0.5652" y="-10" relative="1" as="geometry">
            <mxPoint as="offset" />
          </mxGeometry>
        </mxCell>
        <mxCell id="y_qptO-ub4ya4E3uh66B-39" value="amount &amp;gt; 0" style="rhombus;whiteSpace=wrap;html=1;" parent="WIyWlLk6GJQsqaUBKTNV-1" vertex="1">
          <mxGeometry x="520" y="270" width="100" height="80" as="geometry" />
        </mxCell>
        <mxCell id="pP0EyL-9nEWQgfvj5Cs3-8" style="edgeStyle=orthogonalEdgeStyle;rounded=0;orthogonalLoop=1;jettySize=auto;html=1;entryX=0.5;entryY=0;entryDx=0;entryDy=0;" parent="WIyWlLk6GJQsqaUBKTNV-1" source="pP0EyL-9nEWQgfvj5Cs3-3" target="pP0EyL-9nEWQgfvj5Cs3-7" edge="1">
          <mxGeometry relative="1" as="geometry" />
        </mxCell>
        <mxCell id="pP0EyL-9nEWQgfvj5Cs3-3" value="&lt;span&gt;availability : true&lt;/span&gt;" style="whiteSpace=wrap;html=1;" parent="WIyWlLk6GJQsqaUBKTNV-1" vertex="1">
          <mxGeometry x="510" y="440" width="120" height="60" as="geometry" />
        </mxCell>
        <mxCell id="pP0EyL-9nEWQgfvj5Cs3-9" style="edgeStyle=orthogonalEdgeStyle;rounded=0;orthogonalLoop=1;jettySize=auto;html=1;entryX=0;entryY=0.5;entryDx=0;entryDy=0;exitX=0.5;exitY=1;exitDx=0;exitDy=0;" parent="WIyWlLk6GJQsqaUBKTNV-1" source="pP0EyL-9nEWQgfvj5Cs3-5" target="pP0EyL-9nEWQgfvj5Cs3-7" edge="1">
          <mxGeometry relative="1" as="geometry" />
        </mxCell>
        <mxCell id="pP0EyL-9nEWQgfvj5Cs3-5" value="&lt;span style=&quot;font-family: &amp;#34;helvetica&amp;#34;&quot;&gt;availability : false&lt;/span&gt;" style="whiteSpace=wrap;html=1;" parent="WIyWlLk6GJQsqaUBKTNV-1" vertex="1">
          <mxGeometry x="360" y="440" width="120" height="60" as="geometry" />
        </mxCell>
        <mxCell id="pP0EyL-9nEWQgfvj5Cs3-13" style="edgeStyle=orthogonalEdgeStyle;rounded=0;orthogonalLoop=1;jettySize=auto;html=1;" parent="WIyWlLk6GJQsqaUBKTNV-1" source="pP0EyL-9nEWQgfvj5Cs3-7" target="pP0EyL-9nEWQgfvj5Cs3-12" edge="1">
          <mxGeometry relative="1" as="geometry" />
        </mxCell>
        <mxCell id="pP0EyL-9nEWQgfvj5Cs3-7" value="choice drink Num" style="whiteSpace=wrap;html=1;" parent="WIyWlLk6GJQsqaUBKTNV-1" vertex="1">
          <mxGeometry x="510" y="570" width="120" height="60" as="geometry" />
        </mxCell>
        <mxCell id="pP0EyL-9nEWQgfvj5Cs3-14" value="False" style="edgeStyle=orthogonalEdgeStyle;rounded=0;orthogonalLoop=1;jettySize=auto;html=1;exitX=1;exitY=0.5;exitDx=0;exitDy=0;entryX=1;entryY=0.5;entryDx=0;entryDy=0;" parent="WIyWlLk6GJQsqaUBKTNV-1" source="pP0EyL-9nEWQgfvj5Cs3-12" target="pP0EyL-9nEWQgfvj5Cs3-7" edge="1">
          <mxGeometry x="-0.6774" y="10" relative="1" as="geometry">
            <Array as="points">
              <mxPoint x="710" y="740" />
              <mxPoint x="710" y="600" />
            </Array>
            <mxPoint as="offset" />
          </mxGeometry>
        </mxCell>
        <mxCell id="pP0EyL-9nEWQgfvj5Cs3-16" value="True" style="edgeStyle=orthogonalEdgeStyle;rounded=0;orthogonalLoop=1;jettySize=auto;html=1;" parent="WIyWlLk6GJQsqaUBKTNV-1" source="pP0EyL-9nEWQgfvj5Cs3-12" target="pP0EyL-9nEWQgfvj5Cs3-15" edge="1">
          <mxGeometry y="20" relative="1" as="geometry">
            <mxPoint as="offset" />
          </mxGeometry>
        </mxCell>
        <mxCell id="pP0EyL-9nEWQgfvj5Cs3-12" value="availability" style="rhombus;whiteSpace=wrap;html=1;" parent="WIyWlLk6GJQsqaUBKTNV-1" vertex="1">
          <mxGeometry x="520" y="700" width="100" height="80" as="geometry" />
        </mxCell>
        <mxCell id="pP0EyL-9nEWQgfvj5Cs3-19" value="No" style="edgeStyle=orthogonalEdgeStyle;rounded=0;orthogonalLoop=1;jettySize=auto;html=1;entryX=1;entryY=0.5;entryDx=0;entryDy=0;" parent="WIyWlLk6GJQsqaUBKTNV-1" source="pP0EyL-9nEWQgfvj5Cs3-15" target="pP0EyL-9nEWQgfvj5Cs3-7" edge="1">
          <mxGeometry x="-0.7872" y="10" relative="1" as="geometry">
            <Array as="points">
              <mxPoint x="710" y="900" />
              <mxPoint x="710" y="600" />
            </Array>
            <mxPoint as="offset" />
          </mxGeometry>
        </mxCell>
        <mxCell id="pP0EyL-9nEWQgfvj5Cs3-21" value="Yes" style="edgeStyle=orthogonalEdgeStyle;rounded=0;orthogonalLoop=1;jettySize=auto;html=1;" parent="WIyWlLk6GJQsqaUBKTNV-1" source="pP0EyL-9nEWQgfvj5Cs3-15" target="pP0EyL-9nEWQgfvj5Cs3-20" edge="1">
          <mxGeometry x="-0.1111" y="20" relative="1" as="geometry">
            <mxPoint as="offset" />
          </mxGeometry>
        </mxCell>
        <mxCell id="pP0EyL-9nEWQgfvj5Cs3-15" value="limit &amp;gt;&lt;br&gt;( payment +&lt;br&gt;price )" style="rhombus;whiteSpace=wrap;html=1;" parent="WIyWlLk6GJQsqaUBKTNV-1" vertex="1">
          <mxGeometry x="520" y="860" width="100" height="80" as="geometry" />
        </mxCell>
        <mxCell id="pP0EyL-9nEWQgfvj5Cs3-23" value="" style="edgeStyle=orthogonalEdgeStyle;rounded=0;orthogonalLoop=1;jettySize=auto;html=1;" parent="WIyWlLk6GJQsqaUBKTNV-1" source="pP0EyL-9nEWQgfvj5Cs3-20" target="pP0EyL-9nEWQgfvj5Cs3-22" edge="1">
          <mxGeometry relative="1" as="geometry" />
        </mxCell>
        <mxCell id="pP0EyL-9nEWQgfvj5Cs3-20" value="payment += price" style="whiteSpace=wrap;html=1;" parent="WIyWlLk6GJQsqaUBKTNV-1" vertex="1">
          <mxGeometry x="510" y="1030" width="120" height="60" as="geometry" />
        </mxCell>
        <mxCell id="pP0EyL-9nEWQgfvj5Cs3-25" value="" style="edgeStyle=orthogonalEdgeStyle;rounded=0;orthogonalLoop=1;jettySize=auto;html=1;" parent="WIyWlLk6GJQsqaUBKTNV-1" source="pP0EyL-9nEWQgfvj5Cs3-22" target="pP0EyL-9nEWQgfvj5Cs3-24" edge="1">
          <mxGeometry relative="1" as="geometry" />
        </mxCell>
        <mxCell id="pP0EyL-9nEWQgfvj5Cs3-22" value="drink amount -1" style="whiteSpace=wrap;html=1;" parent="WIyWlLk6GJQsqaUBKTNV-1" vertex="1">
          <mxGeometry x="510" y="1170" width="120" height="60" as="geometry" />
        </mxCell>
        <mxCell id="pP0EyL-9nEWQgfvj5Cs3-30" style="edgeStyle=orthogonalEdgeStyle;rounded=0;orthogonalLoop=1;jettySize=auto;html=1;entryX=0.5;entryY=0;entryDx=0;entryDy=0;" parent="WIyWlLk6GJQsqaUBKTNV-1" source="pP0EyL-9nEWQgfvj5Cs3-24" target="y_qptO-ub4ya4E3uh66B-33" edge="1">
          <mxGeometry relative="1" as="geometry" />
        </mxCell>
        <mxCell id="pP0EyL-9nEWQgfvj5Cs3-24" value="Drink Drop!" style="whiteSpace=wrap;html=1;" parent="WIyWlLk6GJQsqaUBKTNV-1" vertex="1">
          <mxGeometry x="510" y="1300" width="120" height="60" as="geometry" />
        </mxCell>
        <mxCell id="pP0EyL-9nEWQgfvj5Cs3-33" value="Yes" style="edgeStyle=orthogonalEdgeStyle;rounded=0;orthogonalLoop=1;jettySize=auto;html=1;" parent="WIyWlLk6GJQsqaUBKTNV-1" source="pP0EyL-9nEWQgfvj5Cs3-31" target="pP0EyL-9nEWQgfvj5Cs3-32" edge="1">
          <mxGeometry relative="1" as="geometry" />
        </mxCell>
        <mxCell id="pP0EyL-9nEWQgfvj5Cs3-38" value="No" style="edgeStyle=orthogonalEdgeStyle;rounded=0;orthogonalLoop=1;jettySize=auto;html=1;" parent="WIyWlLk6GJQsqaUBKTNV-1" source="pP0EyL-9nEWQgfvj5Cs3-31" target="pP0EyL-9nEWQgfvj5Cs3-36" edge="1">
          <mxGeometry x="-0.7073" y="-10" relative="1" as="geometry">
            <mxPoint as="offset" />
          </mxGeometry>
        </mxCell>
        <mxCell id="pP0EyL-9nEWQgfvj5Cs3-31" value="amount &amp;gt; 0" style="rhombus;whiteSpace=wrap;html=1;" parent="WIyWlLk6GJQsqaUBKTNV-1" vertex="1">
          <mxGeometry x="980" y="270" width="100" height="80" as="geometry" />
        </mxCell>
        <mxCell id="pP0EyL-9nEWQgfvj5Cs3-35" value="Yes" style="edgeStyle=orthogonalEdgeStyle;rounded=0;orthogonalLoop=1;jettySize=auto;html=1;" parent="WIyWlLk6GJQsqaUBKTNV-1" source="pP0EyL-9nEWQgfvj5Cs3-32" target="pP0EyL-9nEWQgfvj5Cs3-34" edge="1">
          <mxGeometry relative="1" as="geometry" />
        </mxCell>
        <mxCell id="pP0EyL-9nEWQgfvj5Cs3-37" value="No" style="edgeStyle=orthogonalEdgeStyle;rounded=0;orthogonalLoop=1;jettySize=auto;html=1;" parent="WIyWlLk6GJQsqaUBKTNV-1" source="pP0EyL-9nEWQgfvj5Cs3-32" target="pP0EyL-9nEWQgfvj5Cs3-36" edge="1">
          <mxGeometry x="-0.52" y="-10" relative="1" as="geometry">
            <mxPoint as="offset" />
          </mxGeometry>
        </mxCell>
        <mxCell id="pP0EyL-9nEWQgfvj5Cs3-32" value="balance &amp;gt; price" style="rhombus;whiteSpace=wrap;html=1;" parent="WIyWlLk6GJQsqaUBKTNV-1" vertex="1">
          <mxGeometry x="980" y="430" width="100" height="80" as="geometry" />
        </mxCell>
        <mxCell id="pP0EyL-9nEWQgfvj5Cs3-40" value="" style="edgeStyle=orthogonalEdgeStyle;rounded=0;orthogonalLoop=1;jettySize=auto;html=1;" parent="WIyWlLk6GJQsqaUBKTNV-1" source="pP0EyL-9nEWQgfvj5Cs3-34" target="pP0EyL-9nEWQgfvj5Cs3-39" edge="1">
          <mxGeometry relative="1" as="geometry" />
        </mxCell>
        <mxCell id="pP0EyL-9nEWQgfvj5Cs3-34" value="&lt;span&gt;availability : true&lt;/span&gt;" style="whiteSpace=wrap;html=1;" parent="WIyWlLk6GJQsqaUBKTNV-1" vertex="1">
          <mxGeometry x="970" y="580" width="120" height="60" as="geometry" />
        </mxCell>
        <mxCell id="pP0EyL-9nEWQgfvj5Cs3-41" style="edgeStyle=orthogonalEdgeStyle;rounded=0;orthogonalLoop=1;jettySize=auto;html=1;entryX=0;entryY=0.5;entryDx=0;entryDy=0;" parent="WIyWlLk6GJQsqaUBKTNV-1" source="pP0EyL-9nEWQgfvj5Cs3-36" target="pP0EyL-9nEWQgfvj5Cs3-39" edge="1">
          <mxGeometry relative="1" as="geometry">
            <Array as="points">
              <mxPoint x="840" y="750" />
            </Array>
          </mxGeometry>
        </mxCell>
        <mxCell id="pP0EyL-9nEWQgfvj5Cs3-36" value="&lt;span style=&quot;font-family: &amp;#34;helvetica&amp;#34;&quot;&gt;availability : false&lt;/span&gt;" style="whiteSpace=wrap;html=1;" parent="WIyWlLk6GJQsqaUBKTNV-1" vertex="1">
          <mxGeometry x="780" y="580" width="120" height="60" as="geometry" />
        </mxCell>
        <mxCell id="pP0EyL-9nEWQgfvj5Cs3-43" style="edgeStyle=orthogonalEdgeStyle;rounded=0;orthogonalLoop=1;jettySize=auto;html=1;" parent="WIyWlLk6GJQsqaUBKTNV-1" source="pP0EyL-9nEWQgfvj5Cs3-39" target="pP0EyL-9nEWQgfvj5Cs3-42" edge="1">
          <mxGeometry relative="1" as="geometry" />
        </mxCell>
        <mxCell id="pP0EyL-9nEWQgfvj5Cs3-39" value="&lt;span&gt;choice drink Num&lt;/span&gt;" style="whiteSpace=wrap;html=1;" parent="WIyWlLk6GJQsqaUBKTNV-1" vertex="1">
          <mxGeometry x="970" y="720" width="120" height="60" as="geometry" />
        </mxCell>
        <mxCell id="pP0EyL-9nEWQgfvj5Cs3-44" value="False" style="edgeStyle=orthogonalEdgeStyle;rounded=0;orthogonalLoop=1;jettySize=auto;html=1;exitX=1;exitY=0.5;exitDx=0;exitDy=0;entryX=1;entryY=0.5;entryDx=0;entryDy=0;" parent="WIyWlLk6GJQsqaUBKTNV-1" source="pP0EyL-9nEWQgfvj5Cs3-42" target="pP0EyL-9nEWQgfvj5Cs3-39" edge="1">
          <mxGeometry relative="1" as="geometry">
            <Array as="points">
              <mxPoint x="1190" y="890" />
              <mxPoint x="1190" y="750" />
            </Array>
          </mxGeometry>
        </mxCell>
        <mxCell id="pP0EyL-9nEWQgfvj5Cs3-46" value="True" style="edgeStyle=orthogonalEdgeStyle;rounded=0;orthogonalLoop=1;jettySize=auto;html=1;" parent="WIyWlLk6GJQsqaUBKTNV-1" source="pP0EyL-9nEWQgfvj5Cs3-42" target="pP0EyL-9nEWQgfvj5Cs3-45" edge="1">
          <mxGeometry relative="1" as="geometry" />
        </mxCell>
        <mxCell id="pP0EyL-9nEWQgfvj5Cs3-42" value="availability" style="rhombus;whiteSpace=wrap;html=1;" parent="WIyWlLk6GJQsqaUBKTNV-1" vertex="1">
          <mxGeometry x="980" y="850" width="100" height="80" as="geometry" />
        </mxCell>
        <mxCell id="pP0EyL-9nEWQgfvj5Cs3-49" style="edgeStyle=orthogonalEdgeStyle;rounded=0;orthogonalLoop=1;jettySize=auto;html=1;entryX=1;entryY=0.5;entryDx=0;entryDy=0;" parent="WIyWlLk6GJQsqaUBKTNV-1" source="pP0EyL-9nEWQgfvj5Cs3-45" target="pP0EyL-9nEWQgfvj5Cs3-22" edge="1">
          <mxGeometry relative="1" as="geometry" />
        </mxCell>
        <mxCell id="pP0EyL-9nEWQgfvj5Cs3-45" value="balance - price" style="whiteSpace=wrap;html=1;" parent="WIyWlLk6GJQsqaUBKTNV-1" vertex="1">
          <mxGeometry x="970" y="1020" width="120" height="60" as="geometry" />
        </mxCell>
        <mxCell id="2oKnmPSqaUGV2AU_C0cW-2" value="Yes" style="edgeStyle=orthogonalEdgeStyle;rounded=0;orthogonalLoop=1;jettySize=auto;html=1;entryX=0.5;entryY=0;entryDx=0;entryDy=0;" edge="1" parent="WIyWlLk6GJQsqaUBKTNV-1" source="2oKnmPSqaUGV2AU_C0cW-0" target="y_qptO-ub4ya4E3uh66B-10">
          <mxGeometry x="0.1111" y="20" relative="1" as="geometry">
            <mxPoint as="offset" />
          </mxGeometry>
        </mxCell>
        <mxCell id="2oKnmPSqaUGV2AU_C0cW-3" value="No" style="edgeStyle=orthogonalEdgeStyle;rounded=0;orthogonalLoop=1;jettySize=auto;html=1;entryX=0.5;entryY=0;entryDx=0;entryDy=0;" edge="1" parent="WIyWlLk6GJQsqaUBKTNV-1" source="2oKnmPSqaUGV2AU_C0cW-0" target="y_qptO-ub4ya4E3uh66B-6">
          <mxGeometry x="-0.4815" y="20" relative="1" as="geometry">
            <mxPoint as="offset" />
          </mxGeometry>
        </mxCell>
        <mxCell id="2oKnmPSqaUGV2AU_C0cW-0" value="changeCoin&lt;br&gt;&amp;gt; &lt;br&gt;changeCount" style="rhombus;whiteSpace=wrap;html=1;" vertex="1" parent="WIyWlLk6GJQsqaUBKTNV-1">
          <mxGeometry x="140" y="590" width="100" height="80" as="geometry" />
        </mxCell>
      </root>
    </mxGraphModel>
  </diagram>
</mxfile>
